<svg xmlns:dc="http://purl.org/dc/elements/1.1/" xmlns:cc="http://creativecommons.org/ns#" xmlns:rdf="http://www.w3.org/1999/02/22-rdf-syntax-ns#" xmlns:svg="http://www.w3.org/2000/svg" xmlns="http://www.w3.org/2000/svg" viewBox="0 0 256 256" fill="none"><metadata><rdf:RDF><cc:Work><dc:format>image/svg+xml</dc:format><dc:type rdf:resource="http://purl.org/dc/dcmitype/StillImage"/><dc:title>Croodles - Doodle your face</dc:title><dc:creator><cc:Agent><dc:title>vijay verma</dc:title></cc:Agent></dc:creator><dc:source>https://www.figma.com/community/file/966199982810283152</dc:source><cc:license rdf:resource="https://creativecommons.org/licenses/by/4.0/"/></cc:Work><cc:License rdf:about="https://creativecommons.org/licenses/by/4.0/"><cc:permits rdf:resource="https://creativecommons.org/ns#Reproduction"/><cc:permits rdf:resource="https://creativecommons.org/ns#Distribution"/><cc:permits rdf:resource="https://creativecommons.org/ns#DerivativeWorks"/><cc:requires rdf:resource="https://creativecommons.org/ns#Notice"/><cc:requires rdf:resource="https://creativecommons.org/ns#Attribution"/></cc:License></rdf:RDF></metadata><mask id="avatarsRadiusMask"><rect width="256" height="256" rx="0" ry="0" x="0" y="0" fill="#fff"/></mask><g mask="url(#avatarsRadiusMask)"><g><path d="M75.03 97.424c1.202-6.455 3.064-12.418 5.682-17.62.016-.216.083-.433.202-.633 2.919-4.87 8.873-9.312 16.326-12.833 7.498-3.543 16.698-6.244 26.347-7.523 18.974-2.514 40.12.43 53.394 13.87.297.097.565.287.754.562 3.569 5.173 5.282 11.963 5.444 21.928.009.587.013 1.185.012 1.794.901-.063 1.887-.025 2.873.273 1.537.466 2.906 1.511 3.976 3.357.616 1.064.876 2.389.942 3.719.067 1.353-.06 2.837-.319 4.311-.514 2.931-1.582 6.01-2.891 8.176-2.249 3.72-4.68 4.686-6.255 4.987a1.391 1.391 0 0 1-.256.027 582.535 582.535 0 0 1-2.092 14.918c-4.165 27.407-11.025 49.419-19.175 64.937-4.075 7.759-8.495 13.939-13.103 18.358-4.604 4.416-9.464 7.137-14.402 7.82-8.816 1.218-24.813-4.583-41.248-35.537-8.265-15.568-14.506-36.508-16.885-57.109a159.222 159.222 0 0 1-.961-12.6c-1.61-.094-3.18-1.052-4.416-2.348-1.505-1.578-2.748-3.877-3.327-6.674-1.39-6.708-.455-11.284 1.825-13.943 2.083-2.43 5.066-2.99 7.553-2.217Z" fill="rgba(255, 255, 255, 0)"/><g stroke="#000" stroke-width="3" stroke-linecap="round" stroke-linejoin="round"><path d="M182.838 98.138c2.311-.365 4.88-.368 6.725 2.839 1.844 3.208.141 11.054-2.296 15.117-2.066 3.442-4.171 4.187-5.369 4.418M73.939 98.658c-4.24-1.94-11.052 1.233-8.305 14.599 1.078 5.246 4.587 8.399 7.08 8.042"/><path d="M80.916 79.414c-14.601 29.019-5.999 82.679 10.64 114.264 16.64 31.585 32.458 36.809 40.48 35.692 18.473-2.572 37.818-36.215 46.272-92.269 5.666-37.57 5.584-54.17-1.216-64.101"/></g><g transform="translate(117 128)"><path d="M21.738 10c4.916 3.966 11.94 22.935 5.97 28.98-5.97 6.046-8.678-4.656-13.806-4.656-5.127 0-9.034 5.918-8.513-1.062.416-5.583 4.035-5.499 4.729-5.763" stroke="#000" stroke-width="3" stroke-linecap="round" stroke-linejoin="round"/></g><g transform="translate(62 148)"/><g transform="translate(97 191)"><g stroke="#000" stroke-width="3" stroke-linecap="round" stroke-linejoin="round"><path d="M54.254 13.735c4.915-9.399-1.372-9.996-6.517-7.424-2.417 1.208-14.6 4.267-23.49 2.403-6.452-2.437-9.806-6.733-10.243 4.184-.438 10.917 36.17 8.642 40.25.837Z"/><path d="M15.169 11.877c7.97 2.77 26.97 5.86 39.215-3.936M23.902 10.969l-.861 5.645M30.84 12.387l-.51 6.195M37.44 11.66l.872 6.441M45.273 9.8l1.409 7.064"/></g></g><g transform="translate(0 -31)"><g stroke="rgba(151, 71, 255, 1)" stroke-width="3" stroke-linecap="round" stroke-linejoin="round"><path d="M128.759 94.651c-5.06-11.097-20.238-13.866-29.266 0-11.908 18.293-2.101 57.693-5.604 83.725-3.502 26.032-21.348 55.842-44.397 55.842-23.05 0-39.915-14.616-38.228-33.168"/><path d="M122.575 82.992c-8.995-7.87-34.293-8.995-38.228 46.661-3.791 53.618-11.767 64.653-28.671 80.954-15.741 15.178-35.927 17.759-50.034 10.681"/><path d="M125.948 80.743c-11.244-15.74-37.05-9.854-46.66 1.925-12.016 14.724 0 77.124 0 98.859s-10.12 42.572-41.04 47.069"/><path d="M126.51 77.37c-4.497-12.93-19.114-19.676-35.417-10.119C69.6 79.85 68.965 99.355 64.754 136.776c-4.21 37.421-2.25 70.289-33.814 81.139-17.99 6.184-33.73-9.557-25.86-26.422"/><path d="M31.502 200.487c33.73-5.059 43.295-42.704 44.412-77.58 1.585-49.472 35.979-60.153 50.596-41.04M130.445 88.052c8.433-4.719 34.844-4.935 38.228 24.736 4.231 37.088-5.488 72.45 7.871 107.376 5.468 14.296 25.86 23.611 37.666 19.114"/><path d="M131.57 82.783c10.755-4.462 30.933-7.698 38.228 6.393 9.119 17.614.995 83.009 7.308 103.441 6.313 20.432 26.985 37.104 41.601 27.547"/><path d="M128.196 80.743c-.703-9.106 12.363-26.958 28.109-18.551 19.682 10.507 30.015 27.711 32.044 42.163 5.605 39.915 2.09 60.072 5.605 85.991 3.514 25.92 16.167 46.235 59.046 32.925"/><path d="M129.321 80.181c4.497-7.87 12.384-14.032 26.422-9.557 17.548 5.594 30.576 29.096 29.874 94.821-.702 65.725 6.106 75.519 24.658 79.455 18.552 3.935 30.738-10.395 35.417-18.552"/><path d="M135.505 77.933c16.865-10.359 55.144-7.768 60.153 27.546 6.261 44.144-3.51 96.438 2.055 112.554 5.565 16.115 21.403 19.126 33.924 15.623"/></g></g><g transform="translate(70 157)"/><g transform="translate(72 80)"><g stroke="#000" stroke-width="3" stroke-linecap="round" stroke-linejoin="round"><path d="M26.833 19.11c1.286 1.158 4.672 2.392 8.595 1.737 3.428-.573 4.91-2.075 5.901-3.945M70.075 16.14c1.998 2.588 5.331 3.394 7.518 3.516 2.186.122 5.021-.772 7.184-1.931M4 20.484l13.684 8.495M48.232 32.81c5.142-3.299 17.622-3.305 20.454-1.837M96.88 28.655c2.544-1.323 10.581-7.782 13.124-9.613"/><path d="M22.564 45.956c-8.29-3.093-7.59-11.34-3.649-17.136 3.046-3.805 22.755-2.179 27.158 1.787 4.207 3.789 2.358 11.778-1.798 14.272-3.372 2.023-16.17 3.145-21.711 1.077ZM94.396 26.673c-3.606-1.126-18.195-1.052-23.903 2.613-3.86 2.478-6.58 14.713 3.514 16.066 4.614.619 14.882-.084 18.703-1.882 8.2-3.859 6.743-15.217 1.686-16.797Z"/><path d="M29.674 35.308c1.02-1.947 3.19-2.642 4.127-2.642 3.105 0 3.987 1.339 4.687 2.172M77.929 35.308c1.02-1.947 3.19-2.642 4.127-2.642 3.105 0 3.987 1.339 4.687 2.172"/></g></g></g></g></svg>