<svg xmlns:dc="http://purl.org/dc/elements/1.1/" xmlns:cc="http://creativecommons.org/ns#" xmlns:rdf="http://www.w3.org/1999/02/22-rdf-syntax-ns#" xmlns:svg="http://www.w3.org/2000/svg" xmlns="http://www.w3.org/2000/svg" viewBox="0 0 256 256" fill="none"><metadata><rdf:RDF><cc:Work><dc:format>image/svg+xml</dc:format><dc:type rdf:resource="http://purl.org/dc/dcmitype/StillImage"/><dc:title>Croodles - Doodle your face</dc:title><dc:creator><cc:Agent><dc:title>vijay verma</dc:title></cc:Agent></dc:creator><dc:source>https://www.figma.com/community/file/966199982810283152</dc:source><cc:license rdf:resource="https://creativecommons.org/licenses/by/4.0/"/></cc:Work><cc:License rdf:about="https://creativecommons.org/licenses/by/4.0/"><cc:permits rdf:resource="https://creativecommons.org/ns#Reproduction"/><cc:permits rdf:resource="https://creativecommons.org/ns#Distribution"/><cc:permits rdf:resource="https://creativecommons.org/ns#DerivativeWorks"/><cc:requires rdf:resource="https://creativecommons.org/ns#Notice"/><cc:requires rdf:resource="https://creativecommons.org/ns#Attribution"/></cc:License></rdf:RDF></metadata><mask id="avatarsRadiusMask"><rect width="256" height="256" rx="0" ry="0" x="0" y="0" fill="#fff"/></mask><g mask="url(#avatarsRadiusMask)"><g><path d="M73.886 102.022c1.232-5.713 2.807-10.664 4.761-14.337.032-.158.09-.313.177-.46 2.902-4.883 8.823-9.335 16.233-12.866 7.455-3.552 16.603-6.26 26.198-7.542 19.113-2.553 40.443.509 53.606 14.442.314.332.442.773.388 1.193 2.089 3.98 4.248 9.844 6.223 16.882 1.343-.518 3.018-.888 4.666-.779 1.926.127 3.949.932 5.161 3.039 2.083 3.624 2.188 9.14.67 15.44-.537 2.23-1.649 3.724-3.025 4.635a6.809 6.809 0 0 1-2.454.995c1.238 7.833 2.129 16.109 2.48 24.335.561 13.173-.262 26.293-3.314 37.281-3.048 10.971-8.382 20.029-17.011 24.722-18.324 9.965-38.663 12.216-55.895 7.93-17.234-4.286-31.46-15.15-37.277-31.47-3.787-10.625-5.537-30.289-5.1-49.542.064-2.825.176-5.647.335-8.437l-.05.009c-.822.117-1.697.06-2.558-.293-.863-.353-1.62-.967-2.262-1.822-1.25-1.665-2.122-4.327-2.602-8.223-.69-5.608.155-10.034 2.235-12.768 1.057-1.39 2.435-2.337 4.04-2.711 1.41-.327 2.898-.192 4.375.347Z" fill="rgba(255, 255, 255, 0)"/><g stroke="#000" stroke-width="3" stroke-linecap="round" stroke-linejoin="round"><path d="M78.904 87.314c-10.418 19.382-10.78 77.782-3.213 98.999 11.51 32.276 56.411 43.348 93.316 23.288 33.33-18.117 18.061-104.955 6.13-127.601"/><path d="M182.901 100.238c2.589-1.154 6.883-1.752 8.728 1.455 1.844 3.208 2.054 8.382.528 14.71-.941 3.902-3.738 4.766-5.705 4.766M72.656 103.001c-5.88-2.578-10.794 2.577-9.425 13.692.962 7.806 3.407 9.64 5.901 9.284"/></g><g transform="translate(115 126)"><path d="M2 2.745c3.502 0 7.716 5.688 8.111 14.749.643 14.704-4.162 19.358 0 26.97 2.728 4.989 17.76 4.733 21.85-3.534 3.218-6.502-2.929-12.045-6.593-20.744C21.873 11.894 19.66 6.796 23.314 2" stroke="#000" stroke-width="3" stroke-linecap="round" stroke-linejoin="round"/></g><g transform="translate(61 138)"><g stroke="#000" stroke-width="3" stroke-linecap="round" stroke-linejoin="round"><path d="M17.045 45.981s0 0 0 0M12 41.424s0 0 0 0M104.035 37.03s0 0 0 0M93.7 45.981s0 0 0 0M33.365 44.893s0 0 0 0M22.868 56.042s0 0 0 0M30.303 70.351s0 0 0 0M82.79 73.28s0 0 0 0M95.077 71.978s0 0 0 0M78.151 64.316s0 0 0 0M118.269 33s0 0 0 0M118.757 42.684s0 0 0 0M108.992 49.112h.001M102.075 63.841h.001M92.473 59.447s0 0 0 0M54.96 73.28s0 0 0 0M68.305 77.919s0 0 0 0M46.578 64.899s0 0 0 0M40.981 74.813s0 0 0 0M67.428 64.316s0 0 0 0M31.135 56.042s0 0 0 0"/></g></g><g transform="translate(98 188)"><path d="M22 16.73c7.19 3.826 23.134 1.937 25.412-7.063.236-.934.055-2.667-1.167-2.667" stroke="#000" stroke-width="3" stroke-linecap="round" stroke-linejoin="round"/></g><g transform="translate(-2 -23)"><g stroke="rgba(105, 155, 247, 1)" stroke-width="3" stroke-linecap="round" stroke-linejoin="round"><path d="M81 106.121c11-18.499 70-33.353 96-5.846"/><path d="M81.281 106.524c22.151 16.867 56.784-10.447 61.18-18.737 0 18.157 19.211 23.956 34.551 12.881"/><path d="M130.095 91.625c-3.999 2.856-21.42 13.28-35.7 12.424M104.105 95.338c3.951-.571 13.109-2.256 18.136-4.427M147.355 90.911c1.167 2.625 5.55 8.024 13.749 8.624"/></g></g><g transform="translate(71 156)"/><g transform="translate(70 84)"><g stroke="#000" stroke-width="3" stroke-linecap="round" stroke-linejoin="round"><path d="M33.046 35.608c-1.817-1.754.438-4.382 2.423-3.389 2.482 1.241 3.41 4.32 1.239 6.491-2.171 2.172-7.167.782-7.477-4.492-.31-5.275 6.46-9.173 9.872-2.968 3.413 6.205 2.323 11.804-5.148 11.804-5.088 0-7.3-3.526-7.813-6.898-1.03-6.753 2.409-13.665 9.69-11.992 4.483 1.03 9.653 3.956 8.722 13.264-.93 9.307-5.932 10.236-12.293 9.146-7.666-1.314-9.752-8.177-7.268-15.93M78.465 35.608c-1.817-1.754.438-4.382 2.423-3.389 2.481 1.241 3.41 4.32 1.239 6.491-2.171 2.172-7.167.782-7.477-4.492-.31-5.275 6.46-9.173 9.872-2.968 3.413 6.205 2.323 11.804-5.148 11.804-5.088 0-7.3-3.526-7.813-6.898-1.03-6.753 2.409-13.665 9.69-11.992 4.483 1.03 9.653 3.956 8.722 13.264-.93 9.307-5.932 10.236-12.293 9.146-7.666-1.314-9.752-8.177-7.268-15.93M29.773 15.88c3.085 2.178 8.839 2.639 12.115 1M72.204 16.791c3.613 1.103 9.221-.26 11.82-2.84"/></g></g></g></g></svg>